<svg width="24" height="24" xmlns="http://www.w3.org/2000/svg" fill-rule="evenodd" clip-rule="evenodd"><path d="M20 13.445c-.541.201-1.987.555-5.472.555-3.507 0-4.974-.358-5.528-.563v-6.437h11v6.445zm.5-7.445h-12c-.276 0-.5.224-.5.5v7.5s.625 1 6.528 1 6.472-1 6.472-1v-7.5c0-.276-.224-.5-.5-.5zm-3.5 11.5c0 .276-.224.5-.5.5h-4c-.276 0-.5-.224-.5-.5 0-.277.224-.5.5-.5h4c.276 0 .5.223.5.5zm2.5.5c-.275 0-.5-.225-.5-.5 0-.276.225-.5.5-.5s.5.224.5.5c0 .275-.225.5-.5.5zm0-2c-.828 0-1.5.672-1.5 1.5s.672 1.5 1.5 1.5 1.5-.672 1.5-1.5-.672-1.5-1.5-1.5zm-10 2c-.276 0-.5-.225-.5-.5 0-.276.224-.5.5-.5s.5.224.5.5c0 .275-.224.5-.5.5zm0-2c-.828 0-1.5.672-1.5 1.5s.672 1.5 1.5 1.5 1.5-.672 1.5-1.5-.672-1.5-1.5-1.5zm13.5-4h-1v7c0 .621-.52 1-1 1h-13c-.617 0-1-.516-1-1v-7h-1v-3h1v-3c0-1.103.897-2 2-2h11c1.103 0 2 .897 2 2v3h1v3zm-3 10h-1v-1h1v1zm-10 0h-1v-1h1v1zm13-14v-2c0-1.657-1.343-3-3-3h-11c-1.657 0-3 1.343-3 3v2c-.552 0-1 .448-1 1v3c0 .551.448 1 1 1v6c0 1.239 1.037 2 2 2v1c0 .551.448 1 1 1h1c.552 0 1-.449 1-1v-1h7v1c0 .551.448 1 1 1h1c.552 0 1-.449 1-1v-1c.958 0 2-.758 2-2v-6c.552 0 1-.449 1-1v-3c0-.552-.448-1-1-1zm-22-6h3v4h-3v-4zm3 5c.552 0 1-.449 1-1v-4c0-.552-.448-1-1-1h-3c-.552 0-1 .448-1 1v4c0 .551.448 1 1 1h1v15h-2v1h5v-1h-2v-15h1z"/></svg>